<svg aria-hidden="true" style="position:absolute;width:0;height:0;overflow:hidden" xmlns="http://www.w3.org/2000/svg">
    <defs>
        <symbol id="menu" viewBox="0 0 32 32">
            <path fill="#7eb101" style="fill:var(--color1, #7eb101)"
                d="M2.67 8c0-.35.14-.7.39-.94s.59-.4.94-.4h24a1.33 1.33 0 0 1 .94 2.28c-.25.25-.59.4-.94.4H4A1.33 1.33 0 0 1 2.67 8zm0 8.04A1.33 1.33 0 0 1 4 14.71h24a1.33 1.33 0 1 1 0 2.67H4a1.33 1.33 0 0 1-1.33-1.34zM4 22.75a1.34 1.34 0 0 0-.94 2.28c.25.25.59.39.94.39h24a1.33 1.33 0 1 0 0-2.67H4z" />
        </symbol>
        <symbol id="logo" viewBox="0 0 44 32">
            <path fill="#ffe553" style="fill:var(--color2, #ffe553)"
                d="M16.5 6.46a2.73 2.73 0 0 1 4.86 0l1.28 2.5c.4.78 1.14 1.32 2 1.46l2.78.44a2.73 2.73 0 0 1 1.5 4.63l-1.98 1.98c-.62.62-.9 1.5-.77 2.35l.44 2.78a2.73 2.73 0 0 1-3.93 2.86l-2.52-1.28c-.78-.4-1.7-.4-2.47 0l-2.52 1.28a2.73 2.73 0 0 1-3.93-2.86l.44-2.78a2.73 2.73 0 0 0-.77-2.35l-1.98-1.99a2.73 2.73 0 0 1 1.5-4.62l2.78-.44c.86-.14 1.6-.68 2-1.45l1.29-2.51z" />
            <path fill="#2c2c2c" style="fill:var(--color3, #2c2c2c)"
                d="M3.48 20.53h-.03v.9a76.87 76.87 0 0 0-.02 1.76c0 .12 0 .22-.02.3l-.01.2c-.02.13-.05.2-.09.21-.1.02-.24-.05-.43-.2-.2-.18-.31-.33-.34-.46s-.04-1.06-.03-2.8c.02-1.73-.02-2.88-.14-3.43a.41.41 0 0 1 .02-.27c.03-.16.22-.32.55-.47.34-.14.84-.3 1.52-.45a9.5 9.5 0 0 1 1.62-.27c.4-.03.62.03.65.15.02.09-.03.16-.14.23l-.3.16a28.49 28.49 0 0 1-.75.28 11.76 11.76 0 0 0-1.03.35 18.6 18.6 0 0 0-1.22.43c.02.02.03.05.04.1.07.33.12 1.13.13 2.39.44-.08.9-.2 1.4-.37l.92-.28c.27-.06.42-.04.44.07.06.22-.2.48-.79.77-.57.3-1.22.53-1.95.7zm6.93-1.95a2.01 2.01 0 0 0-.28-.65.95.95 0 0 0-.45-.4c-.46.25-.79.73-1 1.44-.2.7-.23 1.32-.1 1.86s.34.85.64.93c.49-.22.84-.67 1.05-1.35.22-.69.27-1.3.14-1.83zm-2.77.76c.12-.61.33-1.14.64-1.6a1.9 1.9 0 0 1 1.1-.82c.43-.1.83 0 1.2.29.37.28.61.69.73 1.2.13.51.13 1.07 0 1.66a3.77 3.77 0 0 1-.71 1.57c-.35.45-.77.74-1.26.85-.36.09-.7-.01-1.02-.29s-.54-.66-.66-1.17a4.12 4.12 0 0 1-.02-1.7zm7.58-1.9a2.01 2.01 0 0 0-.27-.65.95.95 0 0 0-.46-.4c-.45.25-.78.73-1 1.44-.2.7-.23 1.32-.1 1.86s.34.86.65.93c.48-.22.83-.67 1.04-1.35.22-.69.27-1.3.14-1.83zm-2.77.76c.12-.61.34-1.14.65-1.59a1.9 1.9 0 0 1 1.1-.83c.43-.1.82 0 1.2.3.36.28.6.68.73 1.2.12.5.12 1.06 0 1.66a3.77 3.77 0 0 1-.72 1.57c-.35.45-.77.73-1.25.84-.37.09-.7 0-1.03-.28s-.54-.67-.66-1.18a4.12 4.12 0 0 1-.02-1.69zm7.8-6.99c.1-.02.27.05.48.22.22.17.35.34.4.53s.08.73.1 1.63c.03.9.03 1.84.02 2.81-.02 2.2-.11 3.3-.27 3.34-.1.03-.23 0-.38-.1-.14-.1-.22-.2-.24-.29s-.05-.28-.06-.57c-.53.87-1.05 1.37-1.57 1.5-.3.07-.62 0-.95-.23-.31-.23-.5-.49-.58-.8a5.59 5.59 0 0 1 .62-3.54c.33-.6.74-.96 1.25-1.08s.92.1 1.26.66c0-1.59-.07-2.82-.24-3.7-.06-.22 0-.34.15-.38zm.06 5.5c-.09-.39-.23-.7-.43-.93-.19-.23-.38-.32-.56-.28-.3.07-.57.34-.8.79a4.67 4.67 0 0 0-.44 2.8c.03.12.1.21.21.27s.23.06.36.03c.28-.06.6-.35.97-.85.38-.51.62-1.06.7-1.65v-.13l-.01-.06zm6.78-.64c.14.58 0 1.13-.43 1.65-.44.51-1 .85-1.67 1.01-.68.16-1.27.12-1.8-.13-.52-.25-.81-.53-.89-.84-.05-.21-.01-.33.12-.36.11-.03.37.09.79.35.15.09.35.16.59.22.24.05.48.05.72 0 .5-.12.91-.35 1.23-.7.33-.35.46-.67.39-.97-.04-.19-.23-.4-.56-.64s-.67-.45-1.04-.64c-.37-.2-.72-.42-1.05-.66s-.51-.46-.55-.63c-.04-.18-.05-.38-.03-.59s.07-.38.13-.5c.2-.36.57-.74 1.09-1.13.53-.4.99-.64 1.39-.74.2-.04.39-.02.56.08s.28.23.32.38c.01.07-.05.14-.19.22l-.64.33c-.28.14-.53.28-.74.42-.74.5-1.07.9-1 1.2.03.15.55.49 1.55 1 .38.2.74.46 1.09.77.35.3.55.6.62.9zm2.44.53c.04.14.13.18.29.15.26-.07.57-.22.92-.46.35-.24.55-.37.6-.38.12-.03.2.02.23.15.05.21-.1.5-.47.87-.35.36-.7.59-1.05.67-.34.08-.64.06-.91-.07-.28-.14-.44-.31-.48-.5s-.07-.47-.05-.8c0-.32.03-.76.07-1.3.04-.55.07-1 .08-1.35-.31.15-.53.24-.64.27s-.24 0-.38-.09c-.14-.1-.21-.2-.24-.3-.04-.17.38-.44 1.26-.82a7.64 7.64 0 0 0-.17-1.6c-.05-.21 0-.34.13-.37.12-.03.3.01.5.13.22.1.35.25.4.44s.06.55.05 1.06c.4-.13.71-.23.95-.28.43-.1.66-.06.7.12.03.1-.06.22-.28.35-.21.12-.67.35-1.37.67-.01.6-.05 1.28-.1 2.05a7.09 7.09 0 0 0-.03 1.4zm4.75-5.56c.32-.07.65.02 1 .28.34.25.55.51.6.78.07.25.04.53-.07.84.11.1.17.17.2.25.04.2.07.55.1 1.05a37.63 37.63 0 0 0 .11 1.62c.02.19-.03.3-.13.31-.12.03-.26-.05-.4-.25-.13-.2-.24-.49-.34-.84-.44.95-.93 1.49-1.47 1.62-.32.07-.68.01-1.06-.19s-.6-.46-.68-.76c-.1-.42-.06-.99.1-1.68.16-.7.43-1.36.81-1.97s.8-.96 1.23-1.06zm.93 1.75c-.15-.65-.36-.95-.62-.9-.28.07-.56.35-.83.83-.28.48-.48 1-.62 1.55s-.17.98-.1 1.27c.03.12.1.2.22.26a.6.6 0 0 0 .37.02c.33-.07.66-.39.97-.93.3-.55.47-1.17.48-1.85 0-.11.04-.2.14-.24z" />
            <path fill="#bbf330" style="fill:var(--color4, #bbf330)"
                d="M33.16 19.97c-.3.08-.55.3-.65.6a14.32 14.32 0 0 1-23.43 5.79.91.91 0 0 0-.85-.23c-.64.15-.89.93-.41 1.39a16.03 16.03 0 0 0 26.35-6.5c.2-.63-.37-1.2-1.01-1.05zM4.19 14.15a.9.9 0 0 0 .66-.72 14.32 14.32 0 0 1 25.36-6.26.9.9 0 0 0 .92.33c.59-.15.85-.83.48-1.3a16.02 16.02 0 0 0-28.45 7.03c-.1.58.44 1.06 1.03.92z" />
            <path fill="#bbf330" style="fill:var(--color4, #bbf330);stroke:var(--color4, #bbf330)" stroke="#bbf330"
                stroke-linejoin="round" stroke-width=".63"
                d="M43.04 5.33c-3.79 7.24-5.45 2.47-10.78 5.27.53-8.4 6.18-3.29 10.78-5.27z" />
        </symbol>
        <symbol id="rocket" viewBox="0 0 32 32">
            <path fill="#7eb101" style="fill:var(--color1, #7eb101)"
                d="m7.23 13.63 3.54 1.5a31.56 31.56 0 0 1 2.73-4.6L10.87 10l-3.64 3.63zm5.14 2.7 4.43 4.44c1.27-.58 2.46-1.24 3.57-1.97s2-1.45 2.7-2.13c1.8-1.8 3.12-3.65 3.96-5.54s1.3-4.02 1.37-6.4c-2.38.07-4.51.52-6.4 1.37a18.84 18.84 0 0 0-7.67 6.67 26.24 26.24 0 0 0-1.96 3.56zm7.63-3.2c-.44-.44-.67-1-.67-1.65s.23-1.2.67-1.65 1-.66 1.65-.66c.66 0 1.2.22 1.65.66s.67 1 .67 1.65c0 .66-.23 1.2-.67 1.65s-1 .67-1.65.67-1.2-.22-1.65-.67zm-.5 12.77 3.63-3.63-.53-2.64c-.71.52-1.46 1-2.23 1.45s-1.57.89-2.37 1.29l1.5 3.53zM30.37 2.77c.2 3.02-.18 5.77-1.14 8.26s-2.53 4.84-4.73 7.04l-.13.13.73 3.67c.07.33.05.65-.05.96s-.27.6-.52.84l-5.7 5.73L16 22.8l-5.67-5.67-6.6-2.83 5.74-5.7c.24-.24.52-.42.83-.52s.63-.11.97-.05l3.66.74.07-.05a19.1 19.1 0 0 1 15.37-5.95zm-24.4 18.4c.77-.78 1.72-1.18 2.85-1.19s2.07.38 2.85 1.15c.77.78 1.16 1.73 1.15 2.85s-.4 2.08-1.19 2.85c-.57.58-1.47 1.06-2.68 1.44S5.92 29 3.5 29.33c.33-2.42.68-4.24 1.05-5.46s.84-2.12 1.42-2.7zm1.4 1.43c-.31.33-.6.86-.84 1.57s-.45 1.62-.63 2.73c1.11-.18 2.02-.39 2.73-.63s1.24-.52 1.57-.84c.42-.37.64-.85.65-1.41s-.18-1.06-.58-1.49a2.02 2.02 0 0 0-2.9.07z" />
        </symbol>
        <symbol id="stars" viewBox="0 0 200 32">
            <path fill="#ffe550" style="fill:var(--color5, #ffe550)"
                d="M15.64 1.04a1.76 1.76 0 0 1 3.2 0l3.5 8.16c.25.58.82.98 1.46 1.03l9.08.71c1.54.12 2.17 1.98 1 2.96l-6.92 5.75c-.5.41-.71 1.06-.56 1.67l2.11 8.6c.36 1.46-1.27 2.6-2.6 1.83l-7.76-4.61a1.78 1.78 0 0 0-1.81 0l-7.78 4.6c-1.31.79-2.95-.36-2.59-1.82l2.11-8.6a1.66 1.66 0 0 0-.55-1.67L.6 13.9c-1.17-.98-.55-2.84.99-2.96l9.08-.7a1.73 1.73 0 0 0 1.46-1.04l3.5-8.16zM57.02 1.04a1.76 1.76 0 0 1 3.2 0l3.5 8.16c.25.58.81.98 1.46 1.03l9.08.71c1.54.12 2.16 1.98 1 2.96l-6.93 5.75c-.49.41-.7 1.06-.56 1.67l2.12 8.6c.36 1.46-1.28 2.6-2.6 1.83l-7.77-4.61a1.78 1.78 0 0 0-1.8 0l-7.78 4.6c-1.32.79-2.95-.36-2.6-1.82l2.12-8.6a1.66 1.66 0 0 0-.56-1.67L42 13.9c-1.18-.98-.55-2.84.99-2.96l9.08-.7a1.73 1.73 0 0 0 1.46-1.04l3.5-8.16zM98.4 1.04a1.76 1.76 0 0 1 3.2 0l3.5 8.16c.25.58.81.98 1.46 1.03l9.08.71c1.54.12 2.16 1.98 1 2.96l-6.93 5.75c-.49.41-.7 1.06-.56 1.67l2.12 8.6c.36 1.46-1.28 2.6-2.6 1.83l-7.77-4.61a1.78 1.78 0 0 0-1.8 0l-7.78 4.6c-1.32.79-2.95-.36-2.6-1.82l2.12-8.6a1.66 1.66 0 0 0-.56-1.67l-6.92-5.75c-1.17-.98-.54-2.84 1-2.96l9.07-.7A1.73 1.73 0 0 0 94.9 9.2l3.5-8.16zM139.78 1.04a1.76 1.76 0 0 1 3.2 0l3.5 8.16c.25.58.81.98 1.46 1.03l9.08.71c1.54.12 2.16 1.98 1 2.96l-6.93 5.75c-.49.41-.7 1.06-.55 1.67l2.1 8.6c.37 1.46-1.27 2.6-2.58 1.83l-7.78-4.61a1.78 1.78 0 0 0-1.8 0l-7.78 4.6c-1.31.79-2.95-.36-2.59-1.82l2.11-8.6a1.66 1.66 0 0 0-.56-1.67l-6.91-5.75c-1.18-.98-.55-2.84.99-2.96l9.07-.7a1.73 1.73 0 0 0 1.47-1.04l3.5-8.16zM181.16 1.04a1.76 1.76 0 0 1 3.2 0l3.5 8.16c.25.58.81.98 1.46 1.03l9.08.71c1.54.12 2.16 1.98 1 2.96l-6.93 5.75c-.49.41-.7 1.06-.55 1.67l2.1 8.6c.37 1.46-1.27 2.6-2.58 1.83l-7.78-4.61a1.78 1.78 0 0 0-1.8 0l-7.78 4.6c-1.32.79-2.95-.36-2.6-1.82l2.12-8.6a1.66 1.66 0 0 0-.56-1.67l-6.91-5.75c-1.18-.98-.55-2.84.99-2.96l9.08-.7a1.73 1.73 0 0 0 1.46-1.04l3.5-8.16z" />
        </symbol>
        <symbol id="touch" viewBox="0 0 32 32">
            <path fill="#7eb101" style="fill:var(--color1, #7eb101)"
                d="M15.5 1.33c2.02 0 3.75.7 5.18 2.12s2.15 3.13 2.15 5.15a7.34 7.34 0 0 1-2.86 5.87h-1.14V12.8a5.36 5.36 0 0 0 .43-7.93 5.2 5.2 0 0 0-3.76-1.54c-1.47 0-2.72.51-3.77 1.54s-1.57 2.26-1.57 3.73a5.41 5.41 0 0 0 2 4.2v2.4a7.33 7.33 0 0 1-4-6.6c0-2.02.72-3.74 2.15-5.15s3.17-2.12 5.19-2.12zm-1.27 28a2.75 2.75 0 0 1-1.93-.8l-6.87-6.86 1.87-1.94c.31-.3.66-.55 1.05-.71s.8-.2 1.22-.09l2.6.6V8.67c0-.94.32-1.73.96-2.37s1.44-.97 2.37-.97c.93 0 1.72.32 2.37.97s.97 1.43.97 2.37v5.73h.86c.11 0 .21.02.3.07l.3.13 4.94 2.4c.53.24.92.64 1.18 1.18s.33 1.1.22 1.69l-1.2 7.26c-.12.65-.43 1.17-.94 1.59s-1.09.61-1.73.61h-8.53zm-.26-2h9.36l1.44-8.3-6.1-3.03h-1.84V8.67c0-.4-.12-.73-.36-.97s-.57-.37-.97-.37-.72.12-.97.37a1.3 1.3 0 0 0-.36.97v13.3l-5.14-1.1-.76.76 5.7 5.7zm9.36 0z" />
        </symbol>
        <symbol id="more" viewBox="0 0 34 32">
            <path
                d="M21.93 15.7a.9.9 0 0 1 0 1.29l-9.2 9.2a.9.9 0 0 1-1.28 0l-.43-.42a.9.9 0 0 1 0-1.28l8.14-8.14-8.14-8.14a.9.9 0 0 1 0-1.28l.43-.43a.9.9 0 0 1 1.28 0l9.2 9.2z" />
        </symbol>
    </defs>
</svg>